0
SECTION
2
HEADER
9
$INSUNITS
70
4
9
$ACADVER
1
AC1014
9
$HANDSEED
5
FFFF
0
ENDSEC
0
SECTION
2
TABLES
0
TABLE
2
VPORT
5
8
100
AcDbSymbolTable
0
ENDTAB
0
TABLE
2
LTYPE
5
5
100
AcDbSymbolTable
0
LTYPE
5
14
100
AcDbSymbolTableRecord
100
AcDbLinetypeTableRecord
2
BYBLOCK
70
0
0
LTYPE
5
15
100
AcDbSymbolTableRecord
100
AcDbLinetypeTableRecord
2
BYLAYER
70
0
0
ENDTAB
0
TABLE
2
LAYER
5
2
100
AcDbSymbolTable
70
2
0
LAYER
5
50
100
AcDbSymbolTableRecord
100
AcDbLayerTableRecord
2
0
70
0
6
CONTINUOUS
0
ENDTAB
0
TABLE
2
STYLE
5
3
100
AcDbSymbolTable
70
1
0
STYLE
5
11
100
AcDbSymbolTableRecord
100
AcDbTextStyleTableRecord
2
STANDARD
70
0
0
ENDTAB
0
TABLE
2
VIEW
5
6
100
AcDbSymbolTable
70
0
0
ENDTAB
0
TABLE
2
UCS
5
7
100
AcDbSymbolTable
70
0
0
ENDTAB
0
TABLE
2
APPID
5
9
100
AcDbSymbolTable
70
2
0
APPID
5
12
100
AcDbSymbolTableRecord
100
AcDbRegAppTableRecord
2
ACAD
70
0
0
ENDTAB
0
TABLE
2
DIMSTYLE
5
A
100
AcDbSymbolTable
70
1
0
ENDTAB
0
TABLE
2
BLOCK_RECORD
5
1
100
AcDbSymbolTable
70
1
0
BLOCK_RECORD
5
1F
100
AcDbSymbolTableRecord
100
AcDbBlockTableRecord
2
*MODEL_SPACE
0
BLOCK_RECORD
5
1B
100
AcDbSymbolTableRecord
100
AcDbBlockTableRecord
2
*PAPER_SPACE
0
ENDTAB
0
ENDSEC
0
SECTION
2
BLOCKS
0
BLOCK
5
20
100
AcDbEntity
100
AcDbBlockBegin
2
*MODEL_SPACE
0
ENDBLK
5
21
100
AcDbEntity
100
AcDbBlockEnd
0
BLOCK
5
1C
100
AcDbEntity
100
AcDbBlockBegin
2
*PAPER_SPACE
0
ENDBLK
5
1D
100
AcDbEntity
100
AcDbBlockEnd
0
ENDSEC
0
SECTION
2
ENTITIES
0
LINE
5
100
100
AcDbEntity
8
0
100
AcDbLine
10
0
20
0
30
0
11
10
21
0
31
0
0
LINE
5
101
100
AcDbEntity
8
0
100
AcDbLine
10
10.000000149011612
20
4.0000000596046448
30
0
11
10
21
30.000000011462433
31
0
0
LINE
5
102
100
AcDbEntity
8
0
100
AcDbLine
10
7.9999999999999991
20
32
30
0
11
2.0000000000139364
21
32
31
0
0
LINE
5
103
100
AcDbEntity
8
0
100
AcDbLine
10
1.393440918207034e-11
20
30
30
0
11
1.3933021403289558e-11
21
4.0000000596046448
31
0
0
LINE
5
104
100
AcDbEntity
8
0
100
AcDbLine
10
-2.4999999925192284
20
0
30
0
11
0
21
0
31
0
0
LINE
5
105
100
AcDbEntity
8
0
100
AcDbLine
10
1.3933021403289558e-11
20
4.0000000596046448
30
0
11
-2.4999999925192284
21
4.0000000596046448
31
0
0
LINE
5
106
100
AcDbEntity
8
0
100
AcDbLine
10
10.000000149011612
20
4.0000000596046448
30
0
11
12.000000178813934
21
4.0000000596046448
31
0
0
LINE
5
107
100
AcDbEntity
8
0
100
AcDbLine
10
12.000000178813934
20
4.645173135031655e-12
30
0
11
10.000000149011612
21
0
31
0
0
CIRCLE
5
108
100
AcDbEntity
8
0
100
AcDbCircle
10
5.000000074505806
20
27.000000402331352
30
0
40
1.7500000000000002
210
0
220
0
230
1
0
LINE
5
109
100
AcDbEntity
8
0
100
AcDbLine
10
6.7500001043081292
20
12.01568651670156
30
0
11
6.7500001043081292
21
7.9843134832984441
31
0
0
LINE
5
110
100
AcDbEntity
8
0
100
AcDbLine
10
3.2500000447034822
20
7.9843134832984468
30
0
11
3.2500000447034822
21
12.015686516701564
31
0
0
ARC
5
111
100
AcDbEntity
8
0
100
AcDbCircle
10
7.9999999999999964
20
30
30
0
40
2.000000000000004
210
0
220
-0
230
1
100
AcDbArc
50
0
51
89.999999999999929
0
ARC
5
112
100
AcDbEntity
8
0
100
AcDbCircle
10
2.0000000000139364
20
30
30
0
40
2.0000000000000018
210
0
220
-0
230
1
100
AcDbArc
50
90
51
180
0
LINE
5
113
100
AcDbEntity
8
0
100
AcDbLine
10
12.000000178813934
20
4.0000000596046448
30
0
11
13.000000160474045
21
4.0000000596046448
31
0
0
LINE
5
114
100
AcDbEntity
8
0
100
AcDbLine
10
13.000000160474045
20
4.0000000596046448
30
0
11
13.000000160474045
21
-4.6451728262107849e-12
31
0
0
LINE
5
115
100
AcDbEntity
8
0
100
AcDbLine
10
13.000000160474045
20
-4.6451728262107849e-12
30
0
11
12.000000178813934
21
4.645173135031655e-12
31
0
0
LINE
5
116
100
AcDbEntity
8
0
100
AcDbLine
10
-2.4999999925192284
20
4.0000000596046448
30
0
11
-2.9999999999860663
21
4.0000000596046448
31
0
0
LINE
5
117
100
AcDbEntity
8
0
100
AcDbLine
10
-2.9999999999860663
20
4.0000000596046448
30
0
11
-2.9999999999860663
21
0
31
0
0
LINE
5
118
100
AcDbEntity
8
0
100
AcDbLine
10
-2.9999999999860663
20
0
30
0
11
-2.4999999925192284
21
0
31
0
0
ARC
5
119
100
AcDbEntity
8
0
100
AcDbCircle
10
5.000000074505806
20
12.000000178813934
30
0
40
1.7500703315879784
210
0
220
0
230
1
100
AcDbArc
50
-0.51356392689229402
51
180.5135639268909
0
ARC
5
120
100
AcDbEntity
8
0
100
AcDbCircle
10
5.000000074505806
20
8.0000001192092896
30
0
40
1.7500703342592638
210
0
220
0
230
1
100
AcDbArc
50
-180.51357368352001
51
0.51357368352215038
0
ENDSEC
0
SECTION
2
OBJECTS
0
DICTIONARY
5
C
100
AcDbDictionary
3
ACAD_GROUP
350
D
3
ACAD_MLINESTYLE
350
17
0
DICTIONARY
5
D
100
AcDbDictionary
0
DICTIONARY
5
1A
330
C
100
AcDbDictionary
0
DICTIONARY
5
17
100
AcDbDictionary
0
ENDSEC
0
EOF
